<mxfile host="app.diagrams.net" modified="2023-07-19T07:55:50.062Z" agent="Mozilla/5.0 (Macintosh; Intel Mac OS X 10_15_7) AppleWebKit/537.36 (KHTML, like Gecko) Chrome/114.0.0.0 Safari/537.36" version="21.5.0" etag="-1KU_-DurQm6A9s918qN" type="github">
  <diagram name="Page-1" id="rTVMlnlHHdlgwYg0Zpxa">
    <mxGraphModel>
      <root>
        <mxCell id="0" />
        <mxCell id="1" parent="0" />
      </root>
    </mxGraphModel>
  </diagram>
</mxfile>
